<?xml version="1.0" standalone="no"?>
<!DOCTYPE svg PUBLIC "-//W3C//DTD SVG 20010904//EN"
 "http://www.w3.org/TR/2001/REC-SVG-20010904/DTD/svg10.dtd">
<svg version="1.0" xmlns="http://www.w3.org/2000/svg"
 width="346.000000pt" height="346.000000pt" viewBox="0 0 346.000000 346.000000"
 preserveAspectRatio="xMidYMid meet">
<metadata>
Created by potrace 1.11, written by Peter Selinger 2001-2013
</metadata>
<g transform="translate(0.000000,346.000000) scale(0.100000,-0.100000)"
fill="#000000" stroke="none">
<path d="M2630 2463 c-479 -33 -868 -197 -1191 -501 -148 -139 -269 -297 -410
-536 -46 -78 -82 -125 -128 -168 -114 -104 -297 -176 -509 -200 l-107 -11 0
-64 0 -63 75 5 c292 23 521 116 708 290 l60 55 64 -29 c88 -40 165 -58 283
-65 55 -3 174 -19 265 -35 235 -42 248 -44 320 -32 95 16 184 63 261 140 56
56 129 159 129 183 0 4 -24 -4 -52 -17 -64 -30 -127 -32 -184 -6 -43 20 -104
85 -104 112 0 50 100 74 270 66 l115 -6 -32 27 c-38 33 -51 69 -29 78 13 5
133 -26 201 -52 11 -5 15 2 15 27 1 19 9 56 18 83 16 46 20 50 64 63 53 15 89
52 124 128 l24 50 -47 7 c-26 4 -58 15 -72 25 -36 26 -69 97 -77 164 l-7 57
78 37 c96 45 282 108 395 133 l85 19 -80 11 c-170 25 -385 35 -525 25z m280
-42 l85 -6 -70 -24 c-38 -13 -106 -40 -149 -59 -78 -34 -83 -34 -245 -40 -191
-6 -472 6 -449 19 27 15 231 69 322 85 168 29 345 38 506 25z m-710 -167 c21
-5 16 -9 -38 -30 -181 -68 -332 -181 -380 -285 -20 -44 -23 -47 -73 -53 -58
-8 -205 -53 -318 -98 -40 -16 -75 -27 -77 -26 -7 8 144 163 226 232 113 95
218 166 334 226 l91 47 105 -4 c58 -2 116 -6 130 -9z m390 -21 c-14 -9 -55
-47 -92 -85 -126 -128 -392 -262 -533 -269 -51 -3 -155 9 -155 17 0 15 36 71
68 106 80 89 235 169 431 223 66 18 112 24 196 24 105 0 109 -1 85 -16z m84
-180 c20 -39 81 -93 106 -93 30 0 33 -18 10 -55 -22 -36 -54 -57 -102 -69 -29
-6 -68 -66 -68 -103 0 -39 -13 -43 -68 -26 l-51 17 47 32 c51 34 98 81 91 89
-3 2 -51 26 -106 52 l-102 48 18 53 c22 63 59 111 132 171 l53 44 12 -65 c7
-36 19 -79 28 -95z m-276 -93 l-3 -50 84 -35 c46 -19 86 -37 90 -40 15 -15
-104 -85 -143 -85 -21 0 -27 -7 -36 -41 -7 -23 -9 -50 -7 -60 5 -17 -2 -19
-77 -19 -45 0 -106 -6 -136 -14 -49 -13 -61 -12 -129 5 -111 29 -230 91 -303
159 l-63 58 39 7 c21 4 73 4 115 0 97 -11 173 -8 236 9 74 19 191 71 265 116
36 21 66 39 68 40 1 0 1 -23 0 -50z m-740 -165 c61 -77 226 -175 352 -209 l66
-18 -4 -34 c-8 -64 72 -152 160 -179 l43 -12 -44 -14 c-41 -12 -47 -11 -85 10
-115 66 -177 92 -256 106 -88 17 -666 161 -681 171 -15 9 24 54 66 76 59 31
316 127 342 128 12 0 30 -11 41 -25z m-335 -255 c93 -24 139 -41 165 -62 91
-72 291 -283 278 -295 -2 -2 -45 3 -96 12 -51 9 -145 20 -209 25 -117 8 -167
22 -285 74 l-59 26 -66 -63 c-172 -162 -409 -268 -633 -284 -84 -6 -88 -5 -88
15 0 18 8 21 58 27 319 35 542 155 654 349 85 149 131 217 142 213 6 -2 69
-19 139 -37z m487 -120 c124 -25 161 -38 255 -85 120 -61 147 -65 214 -35 24
11 46 19 48 16 9 -9 -106 -99 -162 -126 -86 -43 -153 -53 -248 -38 l-78 12
-47 65 c-25 36 -88 107 -139 158 l-93 91 53 -14 c28 -8 117 -27 197 -44z"/>
</g>
</svg>
